Coordinates
version=1
nRows=34
nColumns=20
inDegrees=no

Units are S.I. units (second, meters, Newtons, ...)
If the header above contains a line with 'inDegrees', this indicates whether rotational values are in degrees (yes) or radians (no).

endheader
time	pelvis_tilt	pelvis_list	pelvis_rotation	pelvis_tx	pelvis_ty	pelvis_tz	hip_flexion_r	hip_adduction_r	hip_rotation_r	knee_extension_r	ankle_dorsiflexion_r	hip_flexion_l	hip_adduction_l	hip_rotation_l	knee_extension_l	ankle_dorsiflexion_l	lumbar_extension	lumbar_bending	lumbar_rotation
195.00000000	-0.06345131	-0.03999977	-0.01152477	1.07983191	1.00047556	-0.55782994	-0.07195014	0.02319748	-0.32439320	-0.22320785	0.32986203	0.47165177	-0.09644254	-0.41738569	-0.15111800	0.08345239	0.00099448	0.07802230	0.00100549
195.01000000	-0.06497183	-0.03838559	-0.01192173	1.08032005	0.99848167	-0.55924550	-0.08186654	0.01899415	-0.32656185	-0.22565014	0.33743240	0.47006712	-0.08575501	-0.40604692	-0.11773019	0.08034525	0.00226250	0.07509773	0.00237712
195.02000000	-0.06613227	-0.03656420	-0.01278896	1.08097727	0.99652757	-0.56069574	-0.09127902	0.01405029	-0.32795281	-0.23022713	0.34541214	0.46971817	-0.07714818	-0.39477933	-0.09511920	0.07777678	0.00337842	0.07183755	0.00387198
195.03000000	-0.06689220	-0.03439290	-0.01420393	1.08181950	0.99464798	-0.56218563	-0.09998951	0.00813603	-0.32833130	-0.23737200	0.35347764	0.47064196	-0.07059019	-0.38434040	-0.08347882	0.07537575	0.00435381	0.06810470	0.00567216
195.04000000	-0.06720252	-0.03171826	-0.01622614	1.08286372	0.99287990	-0.56372517	-0.10777810	0.00101329	-0.32748152	-0.24753297	0.36111061	0.47271468	-0.06589108	-0.37539894	-0.08240051	0.07269432	0.00519468	0.06375836	0.00793517
195.05000000	-0.06700784	-0.02838937	-0.01889251	1.08412560	0.99126069	-0.56532842	-0.11440230	-0.00754522	-0.32522076	-0.26115636	0.36759557	0.47565973	-0.06272688	-0.36849129	-0.09091236	0.06928849	0.00589827	0.05866650	0.01077912
195.06000000	-0.06625260	-0.02427363	-0.02221129	1.08561644	0.98982546	-0.56701218	-0.11959569	-0.01773397	-0.32141414	-0.27866558	0.37204235	0.47907868	-0.06067738	-0.36398638	-0.10757922	0.06480630	0.00645235	0.05272087	0.01426811
195.07000000	-0.06488989	-0.01927338	-0.02615482	1.08733981	0.98860428	-0.56879460	-0.12306864	-0.02969178	-0.31598905	-0.30043507	0.37343676	0.48250053	-0.05927203	-0.36206272	-0.13065043	0.05906962	0.00683682	0.04585267	0.01839905
195.08000000	-0.06289139	-0.01334040	-0.03065247	1.08928834	0.98761945	-0.57069374	-0.12451399	-0.04348149	-0.30894787	-0.32675924	0.37072014	0.48544065	-0.05803742	-0.36269987	-0.15823344	0.05213410	0.00702738	0.03804610	0.02309207
195.09000000	-0.06025649	-0.00648576	-0.03558594	1.09144156	0.98688342	-0.57272615	-0.12361982	-0.05907515	-0.30037685	-0.35781780	0.36289401	0.48745875	-0.05653993	-0.36568696	-0.18846697	0.04431446	0.00700016	0.02934707	0.02818698
195.10000000	-0.05701851	0.00121735	-0.04078972	1.09376518	0.98639763	-0.57490562	-0.12008994	-0.07634785	-0.29044863	-0.39364066	0.34914179	0.48820561	-0.05441827	-0.37064843	-0.21966856	0.03616678	0.00673651	0.01986476	0.03344832
195.11000000	-0.05324672	0.00963881	-0.04605885	1.09621201	0.98615268	-0.57724189	-0.11367020	-0.09508171	-0.27941668	-0.43407707	0.32895534	0.48745121	-0.05140313	-0.37708527	-0.25043745	0.02842772	0.00622706	0.00976509	0.03858090
195.12000000	-0.04904385	0.01860411	-0.05116489	1.09872461	0.98612974	-0.57973939	-0.10417715	-0.11497946	-0.26760042	-0.47877436	0.30224993	0.48509115	-0.04732375	-0.38442763	-0.27970418	0.02191870	0.00547440	-0.00074326	0.04325556
195.13000000	-0.04453950	0.02791160	-0.05587891	1.10123925	0.98630319	-0.58239589	-0.09152389	-0.13568501	-0.25536174	-0.52717104	0.26945005	0.48113366	-0.04210387	-0.39209287	-0.30672950	0.01743130	0.00449447	-0.01142768	0.04714306
195.14000000	-0.03988076	0.03735099	-0.05999843	1.10369039	0.98664393	-0.58520128	-0.07573803	-0.15680651	-0.24307495	-0.57850783	0.23152832	0.47567298	-0.03575159	-0.39954235	-0.33106437	0.01561486	0.00331659	-0.02205152	0.04995158
195.15000000	-0.03522158	0.04671866	-0.06337361	1.10601527	0.98712294	-0.58813648	-0.05696799	-0.17793698	-0.23109389	-0.63185709	0.18998377	0.46885728	-0.02834783	-0.40633014	-0.35248857	0.01688690	0.00198216	-0.03239071	0.05146177
195.16000000	-0.03071214	0.05582699	-0.06592789	1.10815766	0.98771468	-0.59117290	-0.03547616	-0.19866879	-0.21972031	-0.68616892	0.14675234	0.46085849	-0.02003676	-0.41213759	-0.37094538	0.02138178	0.00054201	-0.04224404	0.05155356
195.17000000	-0.02648888	0.06450652	-0.06766902	1.11007074	0.98839973	-0.59427265	-0.01162014	-0.21860060	-0.20917809	-0.74032898	0.10405220	0.45184910	-0.01101960	-0.41678978	-0.38648580	0.02894408	-0.00094790	-0.05143576	0.05022008
195.18000000	-0.02266561	0.07260226	-0.06868862	1.11171869	0.98916653	-0.59738980	0.01417428	-0.23733871	-0.19959670	-0.79322171	0.06417811	0.44198709	-0.00155008	-0.42025305	-0.39922858	0.03916382	-0.00243251	-0.05981187	0.04756649
195.19000000	-0.01932564	0.07996744	-0.06915020	1.11307736	0.99001215	-0.60047266	0.04144336	-0.25449682	-0.19100664	-0.84379162	0.02927002	0.43140736	0.00807196	-0.42261588	-0.40933560	0.05144300	-0.00386525	-0.06723337	0.04379451
195.20000000	-0.01651513	0.08645880	-0.06926807	1.11413419	0.99094197	-0.60346710	0.06971351	-0.26969953	-0.18334778	-0.89109576	0.00108966	0.42021641	0.01751263	-0.42405814	-0.41699710	0.06507872	-0.00521624	-0.07357082	0.03917527
195.21000000	-0.01423856	0.09193679	-0.06928015	1.11488752	0.99196855	-0.60632051	0.09852323	-0.28259348	-0.17649020	-0.93434166	-0.01915879	0.40848743	0.02642445	-0.42481480	-0.42241988	0.07934790	-0.00647959	-0.07870362	0.03401520
195.22000000	-0.01245735	0.09627210	-0.06941868	1.11534579	0.99310964	-0.60898607	0.12743672	-0.29286760	-0.17026542	-0.97290738	-0.03093338	0.39625528	0.03447484	-0.42513968	-0.42581368	0.09358099	-0.00767784	-0.08252571	0.02861979
195.23000000	-0.01109318	0.09935768	-0.06988253	1.11552623	0.99438546	-0.61142667	0.15605010	-0.30028032	-0.16450405	-1.00634344	-0.03436803	0.38351280	0.04137924	-0.42527355	-0.42737417	0.10721619	-0.00886178	-0.08495654	0.02325988
195.24000000	-0.01003686	0.10112343	-0.07081424	1.11545341	0.99581557	-0.61361808	0.18399308	-0.30468877	-0.15907438	-1.03435930	-0.03019740	0.37021141	0.04693344	-0.42541927	-0.42726480	0.11983078	-0.01010452	-0.08595459	0.01814427
195.25000000	-0.00916243	0.10154975	-0.07228459	1.11515730	0.99741532	-0.61555093	0.21093024	-0.30607384	-0.15391579	-1.05679942	-0.01961357	0.35626872	0.05103836	-0.42572534	-0.42560197	0.13115022	-0.01149007	-0.08552944	0.01340155
195.26000000	-0.00834507	0.10067657	-0.07428629	1.11467101	0.99919256	-0.61723113	0.23656466	-0.30455474	-0.14906168	-1.07361476	-0.00408558	0.34158408	0.05371229	-0.42627794	-0.42244806	0.14103927	-0.01309792	-0.08374896	0.00907241
195.27000000	-0.00747999	0.09860526	-0.07673718	1.11402833	1.00114471	-0.61867871	0.26064495	-0.30038920	-0.14464856	-1.08483453	0.01482457	0.32606083	0.05508750	-0.42710075	-0.41781563	0.14948098	-0.01498643	-0.08073932	0.00511285
195.28000000	-0.00649887	0.09549250	-0.07949196	1.11326136	1.00325673	-0.61992528	0.28297420	-0.29395751	-0.14091057	-1.09054217	0.03562142	0.30963156	0.05539133	-0.42816098	-0.41168310	0.15654997	-0.01717829	-0.07667712	0.00140680
195.29000000	-0.00538100	0.09153676	-0.08236039	1.11239837	1.00550040	-0.62101024	0.30341838	-0.28573187	-0.13816086	-1.09085719	0.05699283	0.29228141	0.05491498	-0.42937999	-0.40401919	0.16238491	-0.01965110	-0.07177480	-0.00221390
195.30000000	-0.00415671	0.08695953	-0.08512927	1.11146228	1.00783503	-0.62197654	0.32191092	-0.27623482	-0.13676294	-1.08592306	0.07787666	0.27406445	0.05397513	-0.43064645	-0.39481088	0.16716421	-0.02233536	-0.06626128	-0.00594538
195.31000000	-0.00290268	0.08198401	-0.08758514	1.11046989	1.01020960	-0.62286635	0.33845131	-0.26599184	-0.13709568	-1.07590020	0.09747998	0.25510920	0.05287459	-0.43183064	-0.38408902	0.17108642	-0.02512022	-0.06036111	-0.00998652
195.32000000	-0.00173014	0.07681454	-0.08953506	1.10943200	1.01256620	-0.62371715	0.35309705	-0.25548451	-0.13951594	-1.06096258	0.11526098	0.23561185	0.05186806	-0.43279826	-0.37194591	0.17435571	-0.02786611	-0.05427498	-0.01451560
195.33000000	-0.00076809	0.07162009	-0.09082347	1.10835422	1.01484421	-0.62455882	0.36595020	-0.24511007	-0.14432217	-1.04129659	0.13088773	0.21581824	0.05113780	-0.43342324	-0.35854161	0.17717179	-0.03042169	-0.04816473	-0.01967108
